<?xml version="1.0" standalone="no"?>
<!DOCTYPE svg PUBLIC "-//W3C//DTD SVG 20010904//EN"
 "http://www.w3.org/TR/2001/REC-SVG-20010904/DTD/svg10.dtd">
<svg version="1.0" xmlns="http://www.w3.org/2000/svg"
 width="744.000000pt" height="744.000000pt" viewBox="0 0 744.000000 744.000000"
 preserveAspectRatio="xMidYMid meet">

<g transform="translate(0.000000,744.000000) scale(0.100000,-0.100000)"
fill="#000000" stroke="none">
<path d="M4122 6508 c-63 -62 -125 -129 -138 -148 -14 -19 -38 -53 -54 -75
-16 -22 -29 -49 -30 -61 0 -11 -10 -30 -23 -42 -20 -19 -35 -22 -98 -22 -74 0
-76 1 -112 38 -36 37 -147 241 -147 269 0 7 -4 21 -9 31 -5 9 -12 24 -14 32
-3 10 -16 16 -32 15 -21 0 -32 -9 -50 -42 -12 -24 -27 -48 -33 -55 -21 -27
-82 -151 -82 -168 0 -10 -4 -22 -10 -25 -5 -3 -10 -21 -10 -40 0 -19 -4 -37
-10 -40 -5 -3 -10 -17 -10 -30 0 -13 -4 -27 -10 -30 -5 -3 -10 -21 -10 -40 0
-19 -4 -37 -10 -40 -5 -3 -10 -19 -10 -34 0 -16 -18 -63 -40 -106 -22 -43 -40
-86 -40 -96 0 -10 -4 -21 -10 -24 -5 -3 -10 -17 -10 -30 0 -13 -4 -27 -10 -30
-5 -3 -10 -17 -10 -30 0 -13 -4 -27 -10 -30 -5 -3 -10 -17 -10 -30 0 -13 -4
-27 -10 -30 -5 -3 -10 -17 -10 -30 0 -13 -4 -27 -10 -30 -5 -3 -10 -19 -10
-34 0 -59 -66 -163 -203 -315 -71 -80 -44 -116 46 -59 23 15 58 36 77 46 87
47 240 242 240 307 0 10 5 22 10 25 6 3 10 26 10 50 0 24 5 47 10 50 6 3 10
17 10 30 0 13 5 27 10 30 6 3 10 15 10 26 0 10 6 29 12 42 22 38 152 167 169
167 9 0 27 8 40 18 40 29 68 42 88 42 11 0 23 5 26 10 3 6 17 10 30 10 13 0
27 5 30 10 3 6 21 10 40 10 19 0 37 5 40 10 3 6 17 10 30 10 13 0 27 5 30 10
3 6 23 10 44 10 42 0 74 -28 127 -111 44 -68 107 -136 122 -132 14 5 16 49 2
58 -6 4 -10 61 -10 139 0 139 1 143 53 223 15 24 27 45 27 47 0 3 12 24 28 48
15 24 32 52 38 63 19 34 48 30 85 -14 95 -111 149 -212 149 -278 0 -33 7 -50
30 -76 22 -25 30 -45 30 -71 0 -20 5 -36 10 -36 6 0 10 38 10 94 0 53 -4 98
-10 101 -5 3 -10 19 -10 35 0 16 -9 45 -20 65 -11 20 -20 44 -20 55 0 10 -4
22 -10 25 -5 3 -10 14 -10 24 0 21 -94 207 -134 266 -55 80 -67 77 -204 -57z"/>
<path d="M4811 5436 c-9 -10 -4 -27 19 -71 16 -31 30 -69 30 -84 0 -18 12 -39
35 -61 32 -31 125 -200 125 -227 0 -6 14 -37 30 -68 17 -31 30 -63 30 -71 0
-7 9 -29 20 -49 11 -20 20 -49 20 -65 0 -16 5 -32 10 -35 6 -3 10 -17 10 -30
0 -13 5 -27 10 -30 6 -3 10 -17 10 -30 0 -13 5 -27 10 -30 6 -3 10 -21 10 -40
0 -19 5 -37 10 -40 6 -3 10 -39 10 -80 0 -41 5 -77 10 -80 6 -4 10 -57 10
-125 0 -68 -4 -121 -10 -125 -5 -3 -10 -26 -10 -50 0 -24 -4 -47 -10 -50 -5
-3 -10 -14 -10 -24 0 -43 -72 -157 -147 -234 -95 -96 -240 -197 -284 -197 -10
0 -21 -4 -24 -10 -3 -5 -17 -10 -30 -10 -13 0 -27 -4 -30 -10 -3 -5 -21 -10
-40 -10 -19 0 -37 -4 -40 -10 -3 -5 -30 -10 -60 -10 -30 0 -57 -4 -60 -10 -3
-5 -26 -10 -50 -10 -24 0 -47 -4 -50 -10 -3 -5 -35 -10 -70 -10 -35 0 -67 -4
-70 -10 -3 -5 -23 -10 -45 -10 -64 0 -60 -24 16 -101 58 -58 66 -70 54 -83 -7
-9 -20 -16 -30 -16 -19 0 -267 -124 -291 -146 -8 -8 -23 -14 -33 -14 -17 0
-226 -136 -316 -205 -25 -19 -57 -43 -71 -53 -73 -48 -411 -376 -500 -483
-132 -160 -67 -154 124 11 29 25 68 53 87 64 19 10 51 33 70 51 19 17 73 57
120 87 47 31 96 68 109 82 14 14 33 26 42 26 10 0 33 12 51 28 42 35 95 72
104 72 3 0 26 14 51 30 24 17 46 30 49 30 2 0 23 12 47 27 23 15 67 40 97 56
30 16 61 33 67 39 7 6 39 24 70 40 32 16 65 36 74 44 8 8 22 14 31 14 8 0 27
9 41 20 14 11 32 20 41 20 8 0 31 9 51 20 20 11 42 20 50 20 8 0 30 9 50 20
20 11 42 20 49 20 8 0 40 14 71 30 31 17 65 30 75 30 11 0 22 5 25 10 3 6 17
10 30 10 13 0 27 5 30 10 3 6 17 10 30 10 13 0 27 4 30 10 3 5 21 10 40 10 19
0 37 5 40 10 3 6 17 10 30 10 13 0 27 5 30 10 3 6 26 10 50 10 24 0 47 5 50
10 3 6 21 10 40 10 19 0 37 5 40 10 3 6 30 10 60 10 30 0 57 5 60 10 3 6 21
10 40 10 19 0 37 5 40 10 4 6 68 10 160 10 92 0 156 4 160 10 4 6 67 10 156
10 93 0 149 4 149 10 0 6 -13 10 -29 10 -17 0 -33 5 -36 10 -4 6 -54 10 -119
10 -61 0 -116 4 -122 10 -5 5 -100 11 -219 12 l-210 3 -3 24 c-2 13 1 28 7 34
6 6 11 21 11 33 0 13 5 26 10 29 6 3 10 17 10 30 0 13 5 27 10 30 6 3 10 21
10 40 0 19 5 37 10 40 6 3 10 26 10 50 0 24 5 47 10 50 6 3 10 21 10 40 0 19
5 37 10 40 6 4 10 87 10 215 0 128 -4 211 -10 215 -5 3 -10 39 -10 80 0 41 -4
77 -10 80 -5 3 -10 21 -10 40 0 19 -4 37 -10 40 -5 3 -10 17 -10 30 0 13 -4
27 -10 30 -5 3 -10 21 -10 40 0 19 -4 37 -10 40 -5 3 -10 17 -10 30 0 13 -4
27 -10 30 -5 3 -10 14 -10 25 0 10 -13 42 -29 72 -15 30 -31 72 -35 93 -4 21
-27 67 -52 102 -24 34 -44 65 -44 68 0 3 -12 24 -27 48 -23 34 -29 57 -33 121
-4 56 -9 81 -20 87 -8 4 -32 15 -52 23 -20 9 -40 21 -43 26 -9 14 -21 12 -34
-4z"/>
<path d="M4420 5411 c0 -16 -4 -33 -10 -36 -5 -3 -10 -17 -10 -30 0 -13 -4
-27 -10 -30 -5 -3 -10 -14 -10 -24 0 -9 -16 -48 -35 -86 -61 -121 -264 -305
-336 -305 -10 0 -21 -4 -24 -10 -3 -5 -17 -10 -30 -10 -13 0 -27 -4 -30 -10
-3 -5 -26 -10 -50 -10 -24 0 -47 -4 -50 -10 -4 -6 -56 -10 -125 -10 -130 0
-152 -10 -100 -48 53 -39 75 -116 48 -165 -16 -28 -110 -127 -121 -127 -4 0
-40 -21 -80 -47 -77 -51 -313 -173 -334 -173 -7 0 -28 -9 -48 -20 -20 -11 -42
-20 -49 -20 -8 0 -40 -13 -71 -30 -31 -16 -63 -30 -71 -30 -7 0 -29 -9 -49
-20 -20 -11 -44 -20 -55 -20 -10 0 -22 -4 -25 -10 -3 -5 -14 -10 -25 -10 -10
0 -44 -13 -75 -30 -31 -16 -62 -30 -69 -30 -22 0 -420 -206 -490 -254 -124
-83 -341 -284 -370 -343 -11 -21 -30 -49 -42 -63 -11 -14 -30 -41 -40 -60 -10
-19 -24 -42 -30 -50 -22 -29 -64 -111 -64 -124 0 -7 -18 -48 -40 -91 -22 -43
-40 -86 -40 -96 0 -10 -4 -21 -10 -24 -5 -3 -10 -21 -10 -40 0 -19 -4 -37 -10
-40 -5 -3 -10 -17 -10 -30 0 -13 -4 -27 -10 -30 -5 -3 -10 -21 -10 -40 0 -19
-4 -37 -10 -40 -6 -4 -10 -113 -10 -295 0 -182 4 -291 10 -295 6 -3 10 -21 10
-40 0 -19 5 -37 10 -40 6 -3 10 -18 10 -33 0 -15 17 -63 39 -107 21 -44 43
-91 50 -105 6 -14 17 -34 23 -45 7 -11 32 -49 55 -85 23 -36 97 -120 165 -187
126 -125 144 -140 258 -215 95 -63 103 -67 130 -79 14 -7 70 -34 125 -60 55
-27 108 -49 117 -49 9 0 20 -4 23 -10 3 -5 17 -10 30 -10 13 0 27 -4 30 -10 3
-5 21 -10 40 -10 19 0 37 -4 40 -10 3 -5 17 -10 30 -10 13 0 27 -4 30 -10 3
-5 17 -10 30 -10 13 0 27 -4 30 -10 3 -5 26 -10 50 -10 24 0 47 -5 50 -10 3
-6 26 -10 50 -10 24 0 47 -4 50 -10 3 -5 39 -10 80 -10 41 0 77 -5 80 -10 8
-14 502 -14 510 0 3 6 39 10 80 10 41 0 77 4 80 10 3 5 39 10 80 10 41 0 77 5
80 10 3 6 26 10 50 10 24 0 47 5 50 10 3 6 17 10 30 10 13 0 27 5 30 10 3 6
26 10 50 10 24 0 47 5 50 10 3 6 17 10 30 10 13 0 27 5 30 10 3 6 17 10 30 10
13 0 27 5 30 10 3 6 15 10 25 10 11 0 35 9 55 20 20 11 42 20 50 20 8 0 30 9
50 20 20 11 42 20 49 20 20 0 215 102 274 143 28 21 54 37 58 37 5 0 165 106
234 156 31 23 161 140 217 197 107 107 224 238 240 268 18 35 42 68 95 132 14
18 40 59 56 90 17 32 34 63 40 70 20 24 82 149 82 165 0 8 6 23 14 31 20 23
86 150 86 167 0 7 9 29 20 49 11 20 20 44 20 55 0 10 5 22 10 25 6 3 10 17 10
30 0 13 5 27 10 30 6 3 10 17 10 30 0 13 5 27 10 30 6 3 10 17 10 30 0 13 5
27 10 30 6 3 10 16 10 29 0 12 4 26 10 32 5 5 10 37 12 72 1 34 6 62 10 62 4
0 8 9 8 20 0 11 -4 20 -10 20 -10 0 -15 -27 -12 -62 1 -10 -5 -18 -12 -18 -15
0 -46 -52 -46 -76 0 -6 -13 -38 -30 -69 -16 -31 -30 -62 -30 -69 0 -15 -77
-167 -113 -223 -15 -24 -27 -45 -27 -48 0 -3 -16 -27 -35 -55 -19 -27 -43 -64
-53 -82 -33 -61 -98 -152 -172 -239 -44 -52 -380 -388 -449 -449 -85 -75 -181
-145 -249 -182 -18 -10 -54 -33 -80 -51 -26 -18 -58 -37 -72 -43 -58 -26 -78
-36 -125 -63 -27 -16 -58 -30 -67 -30 -10 -1 -33 -10 -53 -21 -20 -11 -42 -20
-50 -20 -8 0 -30 -9 -50 -20 -20 -11 -44 -20 -55 -20 -10 0 -22 -4 -25 -10 -3
-5 -17 -10 -30 -10 -13 0 -27 -4 -30 -10 -3 -5 -17 -10 -30 -10 -13 0 -27 -4
-30 -10 -3 -5 -17 -10 -30 -10 -13 0 -27 -5 -30 -10 -3 -6 -21 -10 -40 -10
-19 0 -37 -4 -40 -10 -3 -5 -21 -10 -40 -10 -19 0 -37 -5 -40 -10 -3 -6 -30
-10 -60 -10 -30 0 -57 -4 -60 -10 -3 -5 -21 -10 -40 -10 -19 0 -37 -4 -40 -10
-4 -6 -103 -10 -265 -10 -162 0 -261 4 -265 10 -3 6 -35 10 -70 10 -35 0 -67
5 -70 10 -3 6 -26 10 -50 10 -24 0 -47 4 -50 10 -3 5 -21 10 -40 10 -19 0 -37
5 -40 10 -3 6 -17 10 -30 10 -13 0 -27 5 -30 10 -3 6 -17 10 -30 10 -13 0 -27
5 -30 10 -3 5 -14 10 -23 10 -21 0 -251 115 -307 153 -90 62 -114 82 -197 165
-49 48 -88 93 -88 101 0 8 -17 39 -37 70 -45 66 -83 139 -83 157 0 8 -9 29
-20 49 -11 20 -20 53 -20 75 0 21 -4 42 -10 45 -14 8 -14 402 0 410 6 3 10 26
10 50 0 24 5 47 10 50 5 3 10 17 10 30 0 13 5 27 10 30 6 3 10 15 10 25 0 11
9 35 20 55 11 20 20 42 20 49 0 16 14 43 53 103 15 24 27 46 27 50 0 11 303
313 314 313 4 0 28 14 53 30 24 17 46 30 50 30 3 0 25 14 50 30 24 17 50 30
57 30 7 0 25 9 39 20 14 11 32 20 40 20 8 0 41 14 72 30 31 17 63 30 71 30 7
0 29 9 49 20 20 11 44 20 55 20 10 0 22 5 25 10 3 6 17 10 30 10 13 0 27 5 30
10 3 6 21 10 40 10 19 0 37 5 40 10 3 6 17 10 30 10 13 0 27 5 30 10 3 6 21
10 40 10 19 0 37 5 40 10 3 6 17 10 30 10 13 0 27 5 30 10 3 6 21 10 40 10 19
0 37 5 40 10 3 6 26 10 50 10 24 0 47 5 50 10 3 6 17 10 30 10 13 0 27 5 30
10 3 6 21 10 40 10 19 0 37 5 40 10 3 6 21 10 40 10 19 0 37 5 40 10 3 6 21
10 40 10 19 0 37 5 40 10 3 6 19 10 35 10 15 0 54 14 85 30 31 17 63 30 70 30
20 0 177 84 231 124 27 20 66 47 86 61 20 13 42 35 49 47 6 13 26 39 44 58 37
39 125 202 125 231 0 10 5 21 10 24 6 3 10 17 10 30 0 13 5 27 10 30 6 3 10
26 10 50 0 24 5 47 10 50 6 4 10 100 10 255 0 155 -4 251 -10 255 -5 3 -10 37
-10 75 0 51 -5 79 -20 105 -11 20 -20 47 -20 60 0 13 -9 40 -19 58 -11 19 -21
45 -23 58 -1 13 -11 25 -20 27 -14 3 -18 -3 -18 -27z"/>
</g>
</svg>
