<?xml version="1.0" standalone="yes"?>
<svg xmlns="http://www.w3.org/2000/svg" width="633" height="633">
<path style="fill:#ffffff; stroke:none;" d="M0 0L0 633L633 633L633 0L0 0z"/>
<path style="fill:#c1c1c1; stroke:none;" d="M56.6667 4.33331C56.2221 4.77795 57.2778 4.72223 57.3333 4.66669C57.7778 4.22223 56.7222 4.27783 56.6667 4.33331z"/>
<path style="fill:#dbdbdb; stroke:none;" d="M58.6667 4.33331C58.2221 4.77795 59.2778 4.72217 59.3333 4.66669C59.7778 4.22217 58.7222 4.27783 58.6667 4.33331M573.667 4.33331C573.222 4.77777 574.278 4.72217 574.333 4.66669C574.778 4.22205 573.722 4.27777 573.667 4.33331z"/>
<path style="fill:#bbbbbb; stroke:none;" d="M575.667 4.33331C575.222 4.77783 576.278 4.72217 576.333 4.66669C576.778 4.22205 575.722 4.27777 575.667 4.33331z"/>
<path style="fill:#cecece; stroke:none;" d="M51.6667 5.33331C51.2221 5.77789 52.2777 5.72229 52.3333 5.66669C52.7777 5.22223 51.7223 5.27771 51.6667 5.33331z"/>
<path style="fill:#b5b5b5; stroke:none;" d="M580.667 5.33331C580.222 5.77777 581.278 5.72223 581.333 5.66669C581.778 5.22223 580.722 5.27765 580.667 5.33331z"/>
<path style="fill:#c7c7c7; stroke:none;" d="M47.6667 6.33331C47.2221 6.77795 48.2778 6.72217 48.3333 6.66669C48.7778 6.22217 47.7222 6.27783 47.6667 6.33331z"/>
<path style="fill:#b0b0b0; stroke:none;" d="M584.667 6.33331C584.222 6.77777 585.278 6.72217 585.333 6.66669C585.778 6.22205 584.722 6.27777 584.667 6.33331z"/>
<path style="fill:#cecece; stroke:none;" d="M587 7L588 8L587 7z"/>
<path style="fill:#bbbbbb; stroke:none;" d="M42 8L43 9L42 8M590 8L591 9L590 8z"/>
<path style="fill:#c7c7c7; stroke:none;" d="M40 9L41 10L40 9M592 9L593 10L592 9z"/>
<path style="fill:#cecece; stroke:none;" d="M38 10L39 11L38 10M594 10L595 11L594 10z"/>
<path style="fill:#c1c1c1; stroke:none;" d="M36 11L37 12L36 11M596 11L597 12L596 11z"/>
<path style="fill:#b5b5b5; stroke:none;" d="M34 12L35 13L34 12M598 12L599 13L598 12z"/>
<path style="fill:#b0b0b0; stroke:none;" d="M32 13L33 14L32 13M600 13L601 14L600 13z"/>
<path style="fill:#c1c1c1; stroke:none;" d="M31 14L32 15L31 14M601 14L602 15L601 14z"/>
<path style="fill:#b5b5b5; stroke:none;" d="M28 16L29 17L28 16M604 16L605 17L604 16z"/>
<path style="fill:#c7c7c7; stroke:none;" d="M27 17L28 18L27 17M605 17L606 18L605 17z"/>
<path style="fill:#d4d4d4; stroke:none;" d="M26 18L27 19L26 18M606 18L607 19L606 18z"/>
<path style="fill:#b0b0b0; stroke:none;" d="M23 20L20 24C21.7561 22.6231 22.5396 22.1058 23 20M609 20C610.33 21.7526 611.247 22.6697 613 24C611.67 22.2473 610.753 21.3303 609 20z"/>
<path style="fill:#d4d4d4; stroke:none;" d="M18 26L19 27L18 26M614 26L615 27L614 26z"/>
<path style="fill:#c7c7c7; stroke:none;" d="M17 27L18 28L17 27M615 27L616 28L615 27z"/>
<path style="fill:#b5b5b5; stroke:none;" d="M16 28L17 29L16 28M616 28L617 29L616 28z"/>
<path style="fill:#c1c1c1; stroke:none;" d="M14 31L15 32L14 31M618 31L619 32L618 31z"/>
<path style="fill:#b0b0b0; stroke:none;" d="M13 32L14 33L13 32M619 32L620 33L619 32z"/>
<path style="fill:#b5b5b5; stroke:none;" d="M12 34L13 35L12 34M620 34L621 35L620 34z"/>
<path style="fill:#c1c1c1; stroke:none;" d="M11 36L12 37L11 36M621 36L622 37L621 36z"/>
<path style="fill:#cecece; stroke:none;" d="M10 38L11 39L10 38M622 38L623 39L622 38z"/>
<path style="fill:#c7c7c7; stroke:none;" d="M9 40L10 41L9 40M623 40L624 41L623 40z"/>
<path style="fill:#bbbbbb; stroke:none;" d="M8 42L9 43L8 42M624 42L625 43L624 42z"/>
<path style="fill:#c7c7c7; stroke:none;" d="M6.33333 47.6667C6.27788 47.7222 6.22222 48.7777 6.66667 48.3333C6.72226 48.2777 6.77778 47.2223 6.33333 47.6667M626.333 47.6667C626.278 47.7223 626.222 48.7776 626.667 48.3333C626.722 48.2778 626.778 47.222 626.333 47.6667z"/>
<path style="fill:#cecece; stroke:none;" d="M5.33333 51.6667C5.27778 51.7222 5.22227 52.7777 5.66667 52.3333C5.72222 52.2778 5.77787 51.2222 5.33333 51.6667M627.333 51.6667C627.278 51.7223 627.222 52.7778 627.667 52.3333C627.722 52.2779 627.778 51.2221 627.333 51.6667z"/>
<path style="fill:#c1c1c1; stroke:none;" d="M4.33333 56.6667C4.27792 56.7221 4.22213 57.7778 4.66667 57.3333C4.72235 57.2776 4.77773 56.2223 4.33333 56.6667M628.333 56.6667C628.278 56.7222 628.222 57.7778 628.667 57.3333C628.722 57.2778 628.778 56.2222 628.333 56.6667z"/>
<path style="fill:#dbdbdb; stroke:none;" d="M4.33333 58.6667C4.27787 58.7222 4.22222 59.7777 4.66667 59.3333C4.72222 59.2778 4.77787 58.2222 4.33333 58.6667M628.333 58.6667C628.278 58.7223 628.222 59.7778 628.667 59.3333C628.722 59.2778 628.778 58.2222 628.333 58.6667M4.33333 73.6667C4.27787 73.7222 4.22222 74.7777 4.66667 74.3333C4.72226 74.2777 4.77778 73.2223 4.33333 73.6667M628.333 73.6667C628.278 73.7223 628.222 74.7778 628.667 74.3333C628.722 74.2778 628.778 73.2222 628.333 73.6667z"/>
<path style="fill:#c1c1c1; stroke:none;" d="M4.33333 75.6667C4.27787 75.7222 4.22222 76.7777 4.66667 76.3333C4.72226 76.2777 4.77778 75.2223 4.33333 75.6667M628.333 75.6667C628.278 75.7223 628.222 76.7778 628.667 76.3333C628.722 76.2778 628.778 75.2222 628.333 75.6667z"/>
<path style="fill:#bbbbbb; stroke:none;" d="M5.33333 80.6667C5.27788 80.7222 5.22222 81.7777 5.66667 81.3333C5.72226 81.2777 5.77778 80.2223 5.33333 80.6667M627.333 80.6667C627.278 80.7223 627.222 81.7778 627.667 81.3333C627.722 81.2779 627.778 80.2221 627.333 80.6667z"/>
<path style="fill:#b5b5b5; stroke:none;" d="M6.33333 84.6667C6.27788 84.7222 6.22222 85.7777 6.66667 85.3333C6.72226 85.2777 6.77778 84.2223 6.33333 84.6667M626.333 84.6667C626.278 84.7223 626.222 85.7776 626.667 85.3333C626.722 85.2778 626.778 84.2222 626.333 84.6667z"/>
<path style="fill:#b0b0b0; stroke:none;" d="M7.33333 87.6667C7.27778 87.7222 7.22227 88.7777 7.66667 88.3333C7.72222 88.2778 7.77787 87.2222 7.33333 87.6667M625.333 87.6667C625.278 87.7223 625.222 88.7778 625.667 88.3333C625.722 88.2777 625.778 87.2222 625.333 87.6667z"/>
<path style="fill:#c7c7c7; stroke:none;" d="M8 90L9 91L8 90M624 90L625 91L624 90z"/>
<path style="fill:#b0b0b0; stroke:none;" d="M9.33333 92.6667C9.27774 92.7223 9.22222 93.7777 9.66667 93.3333C9.72226 93.2777 9.77778 92.2223 9.33333 92.6667M623.333 92.6667C623.278 92.7222 623.222 93.7777 623.667 93.3333C623.722 93.2777 623.778 92.2222 623.333 92.6667M10 95L11 96L10 95M622 95L623 96L622 95z"/>
<path style="fill:#d4d4d4; stroke:none;" d="M11 96L12 97L11 96M621 96L622 97L621 96z"/>
<path style="fill:#c7c7c7; stroke:none;" d="M12 98L13 99L12 98M620 98L621 99L620 98z"/>
<path style="fill:#b5b5b5; stroke:none;" d="M13 100L14 101L13 100M619 100L620 101L619 100z"/>
<path style="fill:#d4d4d4; stroke:none;" d="M14 101L15 102L14 101M618 101L619 102L618 101z"/>
<path style="fill:#b0b0b0; stroke:none;" d="M15 103L16 104L15 103M617 103L618 104L617 103z"/>
<path style="fill:#c1c1c1; stroke:none;" d="M16 104L17 105L16 104M616 104L617 105L616 104z"/>
<path style="fill:#b0b0b0; stroke:none;" d="M18 107C18.5451 108.635 18.3648 108.455 20 109C19.455 107.365 19.6351 107.545 18 107M614 107L613 109C614.263 108.029 614.392 108.306 614 107z"/>
<path style="fill:#bbbbbb; stroke:none;" d="M20 109L21 110L20 109M612 109L613 110L612 109M21 110L22 111L21 110M611 110L612 111L611 110M22 111L23 112L22 111M610 111L611 112L610 111M23 112L24 113L23 112M609 112L610 113L609 112z"/>
<path style="fill:#b0b0b0; stroke:none;" d="M24 113L25 114L24 113M608 113L609 114L608 113M25 114L26 115L25 114M607 114L608 115L607 114z"/>
<path style="fill:#c7c7c7; stroke:none;" d="M28 116L29 117L28 116M604 116L605 117L604 116z"/>
<path style="fill:#b5b5b5; stroke:none;" d="M29 117L30 118L29 117M603 117L604 118L603 117z"/>
<path style="fill:#bbbbbb; stroke:none;" d="M32 119L33 120L32 119M600 119L601 120L600 119z"/>
<path style="fill:#d4d4d4; stroke:none;" d="M598 120L599 121L598 120z"/>
<path style="fill:#b0b0b0; stroke:none;" d="M35 121L36 122L35 121M597 121L598 122L597 121z"/>
<path style="fill:#b5b5b5; stroke:none;" d="M37 122L38 123L37 122M595 122L596 123L595 122M39 123L40 124L39 123M593 123L594 124L593 123z"/>
<path style="fill:#d4d4d4; stroke:none;" d="M41.6667 124.333C41.2222 124.778 42.2778 124.722 42.3333 124.667C42.7777 124.222 41.7223 124.278 41.6667 124.333z"/>
<path style="fill:#b0b0b0; stroke:none;" d="M590.667 124.333C590.222 124.778 591.278 124.722 591.333 124.667C591.778 124.222 590.722 124.278 590.667 124.333z"/>
<path style="fill:#e7e7e7; stroke:none;" d="M44.6667 125.333C44.2222 125.778 45.2778 125.722 45.3333 125.667C45.7778 125.222 44.7223 125.278 44.6667 125.333z"/>
<path style="fill:#c1c1c1; stroke:none;" d="M588 125L589 126L588 125z"/>
<path style="fill:#e7e7e7; stroke:none;" d="M47.6667 126.333C47.2223 126.778 48.2778 126.722 48.3333 126.667C48.7777 126.222 47.7223 126.278 47.6667 126.333z"/>
<path style="fill:#c7c7c7; stroke:none;" d="M585 126L586 127L585 126z"/>
<path style="fill:#d4d4d4; stroke:none;" d="M50 127C51.2485 127.685 51.5482 127.749 53 128C51.7518 127.315 51.4515 127.251 50 127M580 127C581.248 127.685 581.548 127.749 583 128C581.752 127.315 581.452 127.251 580 127z"/>
<path style="fill:#c1c1c1; stroke:none;" d="M54.6667 128.333C54.2222 128.778 55.2778 128.722 55.3333 128.667C55.7778 128.222 54.7222 128.278 54.6667 128.333z"/>
<path style="fill:#d4d4d4; stroke:none;" d="M575.667 128.333C575.222 128.778 576.278 128.722 576.333 128.667C576.778 128.222 575.722 128.278 575.667 128.333z"/>
<path style="fill:#b0b0b0; stroke:none;" d="M577.667 128.333C577.222 128.778 578.278 128.722 578.333 128.667C578.778 128.222 577.722 128.278 577.667 128.333z"/>
<path style="fill:#c1c1c1; stroke:none;" d="M63 129C67.4687 130.875 73.1913 130 78 130L107 130L211 130L570 130C565.531 128.125 559.809 129 555 129L526 129L422 129L63 129M55.6667 254.333C55.2223 254.778 56.2778 254.722 56.3333 254.667C56.7777 254.222 55.7223 254.278 55.6667 254.333z"/>
<path style="fill:#dbdbdb; stroke:none;" d="M574.667 254.333C574.222 254.778 575.278 254.722 575.333 254.667C575.778 254.222 574.722 254.278 574.667 254.333z"/>
<path style="fill:#b5b5b5; stroke:none;" d="M576.667 254.333C576.222 254.778 577.278 254.722 577.333 254.667C577.778 254.222 576.722 254.278 576.667 254.333z"/>
<path style="fill:#dbdbdb; stroke:none;" d="M51.6667 255.333C51.2222 255.778 52.2777 255.722 52.3333 255.667C52.7778 255.222 51.7222 255.278 51.6667 255.333z"/>
<path style="fill:#c1c1c1; stroke:none;" d="M580.667 255.333C580.222 255.778 581.278 255.722 581.333 255.667C581.778 255.222 580.722 255.278 580.667 255.333z"/>
<path style="fill:#d4d4d4; stroke:none;" d="M47.6667 256.333C47.2222 256.778 48.2778 256.722 48.3333 256.667C48.7777 256.222 47.7223 256.278 47.6667 256.333z"/>
<path style="fill:#b5b5b5; stroke:none;" d="M584.667 256.333C584.222 256.778 585.278 256.722 585.333 256.667C585.778 256.222 584.722 256.278 584.667 256.333z"/>
<path style="fill:#d4d4d4; stroke:none;" d="M44.6667 257.333C44.2222 257.778 45.2778 257.722 45.3333 257.667C45.7778 257.222 44.7222 257.278 44.6667 257.333z"/>
<path style="fill:#b5b5b5; stroke:none;" d="M587.667 257.333C587.222 257.778 588.278 257.722 588.333 257.667C588.778 257.222 587.722 257.278 587.667 257.333z"/>
<path style="fill:#c7c7c7; stroke:none;" d="M590 258L591 259L590 258z"/>
<path style="fill:#d4d4d4; stroke:none;" d="M39.6667 259.333C39.2223 259.778 40.2778 259.722 40.3333 259.667C40.7777 259.222 39.7223 259.278 39.6667 259.333z"/>
<path style="fill:#b0b0b0; stroke:none;" d="M592.667 259.333C592.222 259.778 593.278 259.722 593.333 259.667C593.778 259.222 592.722 259.278 592.667 259.333M37 260L38 261L37 260M595 260L596 261L595 260z"/>
<path style="fill:#d4d4d4; stroke:none;" d="M596 261L597 262L596 261z"/>
<path style="fill:#c1c1c1; stroke:none;" d="M34 262L35 263L34 262M598 262L599 263L598 262z"/>
<path style="fill:#b0b0b0; stroke:none;" d="M32 263L33 264L32 263M600 263L601 264L600 263z"/>
<path style="fill:#cecece; stroke:none;" d="M31 264L32 265L31 264z"/>
<path style="fill:#c7c7c7; stroke:none;" d="M601 264L602 265L601 264z"/>
<path style="fill:#b0b0b0; stroke:none;" d="M29 265L30 266L29 265M603 265L604 266L603 265z"/>
<path style="fill:#bbbbbb; stroke:none;" d="M28 266L29 267L28 266M604 266L605 267L604 266z"/>
<path style="fill:#cecece; stroke:none;" d="M27 267L28 268L27 267M605 267L606 268L605 267z"/>
<path style="fill:#b0b0b0; stroke:none;" d="M24 269C22.1376 270.945 20.5317 272.794 19 275C21.4081 273.263 23.3025 271.905 24 269M608 269C609.795 271.507 611.493 273.205 614 275C612.205 272.492 610.508 270.795 608 269z"/>
<path style="fill:#cecece; stroke:none;" d="M17 277L18 278L17 277M615 277L616 278L615 277z"/>
<path style="fill:#bbbbbb; stroke:none;" d="M16 278L17 279L16 278M616 278L617 279L616 278z"/>
<path style="fill:#b0b0b0; stroke:none;" d="M15 279L16 280L15 279M617 279L618 280L617 279z"/>
<path style="fill:#c7c7c7; stroke:none;" d="M14 281L15 282L14 281M618 281L619 282L618 281z"/>
<path style="fill:#b0b0b0; stroke:none;" d="M13 282L14 283L13 282M619 282L620 283L619 282z"/>
<path style="fill:#c1c1c1; stroke:none;" d="M12 284L13 285L12 284M620 284L621 285L620 284z"/>
<path style="fill:#cecece; stroke:none;" d="M11 286L12 287L11 286M621 286L622 287L621 286M10 288L11 289L10 288M622 288L623 289L622 288z"/>
<path style="fill:#e7e7e7; stroke:none;" d="M8.33333 292.667C8.27772 292.722 8.22227 293.778 8.66667 293.333C8.72216 293.278 8.77782 292.222 8.33333 292.667M624.333 292.667C624.278 292.722 624.222 293.778 624.667 293.333C624.722 293.278 624.778 292.222 624.333 292.667z"/>
<path style="fill:#cecece; stroke:none;" d="M7.33333 294.667C7.27786 294.722 7.22214 295.778 7.66667 295.333C7.72228 295.278 7.77773 294.222 7.33333 294.667M625.333 294.667C625.278 294.722 625.222 295.778 625.667 295.333C625.722 295.278 625.778 294.222 625.333 294.667z"/>
<path style="fill:#cdcdcd; stroke:none;" d="M6.33333 297.667C6.27779 297.722 6.2222 298.778 6.66667 298.333C6.72223 298.278 6.77775 297.222 6.33333 297.667z"/>
<path style="fill:#cecece; stroke:none;" d="M626.333 297.667C626.278 297.722 626.222 298.778 626.667 298.333C626.722 298.278 626.778 297.222 626.333 297.667z"/>
<path style="fill:#d4d4d4; stroke:none;" d="M5.33333 301.667C5.27779 301.722 5.2222 302.778 5.66667 302.333C5.72223 302.278 5.77775 301.222 5.33333 301.667M627.333 301.667C627.278 301.722 627.222 302.778 627.667 302.333C627.722 302.278 627.778 301.222 627.333 301.667z"/>
<path style="fill:#c7c7c7; stroke:none;" d="M4.33333 306.667C4.27784 306.722 4.22218 307.778 4.66667 307.333C4.72228 307.278 4.77773 306.222 4.33333 306.667M628.333 306.667C628.278 306.722 628.222 307.778 628.667 307.333C628.722 307.278 628.778 306.222 628.333 306.667z"/>
<path style="fill:#dbdbdb; stroke:none;" d="M4.33333 323.667C4.27784 323.722 4.22218 324.778 4.66667 324.333C4.72221 324.278 4.77779 323.222 4.33333 323.667M628.333 323.667C628.278 323.722 628.222 324.778 628.667 324.333C628.722 324.278 628.778 323.222 628.333 323.667z"/>
<path style="fill:#bbbbbb; stroke:none;" d="M4.33333 325.667C4.27779 325.722 4.2222 326.778 4.66667 326.333C4.72225 326.278 4.77777 325.222 4.33333 325.667M628.333 325.667C628.278 325.722 628.222 326.778 628.667 326.333C628.722 326.278 628.778 325.222 628.333 325.667z"/>
<path style="fill:#d4d4d4; stroke:none;" d="M5 329L5 332C5.69612 330.446 5.6961 330.554 5 329M627 329L627 332C627.696 330.446 627.696 330.554 627 329z"/>
<path style="fill:#b0b0b0; stroke:none;" d="M6.33333 334.667C6.27777 334.722 6.22225 335.778 6.66667 335.333C6.72225 335.278 6.77777 334.222 6.33333 334.667M626.333 334.667C626.278 334.722 626.222 335.778 626.667 335.333C626.722 335.278 626.778 334.222 626.333 334.667M7.33333 337.667C7.27779 337.722 7.2222 338.778 7.66667 338.333C7.72228 338.278 7.77773 337.222 7.33333 337.667M625.333 337.667C625.278 337.722 625.222 338.778 625.667 338.333C625.722 338.278 625.778 337.222 625.333 337.667z"/>
<path style="fill:#c1c1c1; stroke:none;" d="M8 340L9 341L8 340M624 340L625 341L624 340z"/>
<path style="fill:#cecece; stroke:none;" d="M9 342L10 343L9 342z"/>
<path style="fill:#cdcdcd; stroke:none;" d="M623 342L624 343L623 342z"/>
<path style="fill:#cecece; stroke:none;" d="M10 344L11 345L10 344M622 344L623 345L622 344M11 346L12 347L11 346M621 346L622 347L621 346z"/>
<path style="fill:#c1c1c1; stroke:none;" d="M12 348L13 349L12 348M620 348L621 349L620 348z"/>
<path style="fill:#b0b0b0; stroke:none;" d="M13 350L14 351L13 350M619 350L620 351L619 350z"/>
<path style="fill:#c7c7c7; stroke:none;" d="M14 351L15 352L14 351M618 351L619 352L618 351z"/>
<path style="fill:#b0b0b0; stroke:none;" d="M15 353L16 354L15 353M617 353L618 354L617 353z"/>
<path style="fill:#bbbbbb; stroke:none;" d="M16 354L17 355L16 354M616 354L617 355L616 354z"/>
<path style="fill:#cecece; stroke:none;" d="M17 355L18 356L17 355M615 355L616 356L615 355z"/>
<path style="fill:#b0b0b0; stroke:none;" d="M19 358C20.7952 360.507 22.4925 362.205 25 364C23.2048 361.493 21.5075 359.795 19 358M613 358C611.138 359.945 609.532 361.794 608 364C610.408 362.263 612.302 360.905 613 358z"/>
<path style="fill:#cdcdcd; stroke:none;" d="M27 365L28 366L27 365z"/>
<path style="fill:#cecece; stroke:none;" d="M605 365L606 366L605 365z"/>
<path style="fill:#bbbbbb; stroke:none;" d="M28 366L29 367L28 366M604 366L605 367L604 366z"/>
<path style="fill:#b0b0b0; stroke:none;" d="M29 367L30 368L29 367M603 367L604 368L603 367z"/>
<path style="fill:#c7c7c7; stroke:none;" d="M31 368L32 369L31 368M601 368L602 369L601 368z"/>
<path style="fill:#b0b0b0; stroke:none;" d="M32 369L33 370L32 369M600 369L601 370L600 369z"/>
<path style="fill:#c1c1c1; stroke:none;" d="M34 370L35 371L34 370M598 370L599 371L598 370z"/>
<path style="fill:#d4d4d4; stroke:none;" d="M596 371L597 372L596 371z"/>
<path style="fill:#dadada; stroke:none;" d="M37.6667 372.333C37.2223 372.778 38.2778 372.722 38.3333 372.667C38.7777 372.222 37.7222 372.278 37.6667 372.333z"/>
<path style="fill:#b0b0b0; stroke:none;" d="M595 372L596 373L595 372z"/>
<path style="fill:#d4d4d4; stroke:none;" d="M39.6667 373.333C39.2222 373.778 40.2778 373.722 40.3333 373.667C40.7778 373.222 39.7222 373.278 39.6667 373.333z"/>
<path style="fill:#b0b0b0; stroke:none;" d="M592.667 373.333C592.222 373.778 593.278 373.722 593.333 373.667C593.778 373.222 592.722 373.278 592.667 373.333z"/>
<path style="fill:#c7c7c7; stroke:none;" d="M590 374L591 375L590 374z"/>
<path style="fill:#d4d4d4; stroke:none;" d="M44.6667 375.333C44.2222 375.778 45.2778 375.722 45.3333 375.667C45.7778 375.222 44.7222 375.278 44.6667 375.333z"/>
<path style="fill:#b5b5b5; stroke:none;" d="M587.667 375.333C587.222 375.778 588.278 375.722 588.333 375.667C588.778 375.222 587.722 375.278 587.667 375.333z"/>
<path style="fill:#d4d4d4; stroke:none;" d="M47.6667 376.333C47.2222 376.778 48.2778 376.722 48.3333 376.667C48.7778 376.222 47.7222 376.278 47.6667 376.333z"/>
<path style="fill:#b5b5b5; stroke:none;" d="M584.667 376.333C584.222 376.778 585.278 376.722 585.333 376.667C585.778 376.222 584.722 376.278 584.667 376.333z"/>
<path style="fill:#dadada; stroke:none;" d="M51.6667 377.333C51.2223 377.778 52.2778 377.722 52.3333 377.667C52.7778 377.222 51.7222 377.278 51.6667 377.333z"/>
<path style="fill:#c1c1c1; stroke:none;" d="M580.667 377.333C580.222 377.778 581.278 377.722 581.333 377.667C581.778 377.222 580.722 377.278 580.667 377.333M55.6667 378.333C55.2222 378.778 56.2778 378.722 56.3333 378.667C56.7778 378.222 55.7222 378.278 55.6667 378.333z"/>
<path style="fill:#dbdbdb; stroke:none;" d="M574.667 378.333C574.222 378.778 575.278 378.722 575.333 378.667C575.778 378.222 574.722 378.278 574.667 378.333z"/>
<path style="fill:#b5b5b5; stroke:none;" d="M576.667 378.333C576.222 378.778 577.278 378.722 577.333 378.667C577.778 378.222 576.722 378.278 576.667 378.333z"/>
<path style="fill:#c9c9c9; stroke:none;" d="M63 503C66.6987 504.552 71.0172 504 75 504L95 504L168 504L421 504C417.301 502.448 412.983 503 409 503L389 503L316 503L63 503z"/>
<path style="fill:#c1c1c1; stroke:none;" d="M421 503C425.469 504.875 431.191 504 436 504L466 504L570 504C565.531 502.125 559.809 503 555 503L525 503L421 503z"/>
<path style="fill:#c6c6c6; stroke:none;" d="M54.6667 504.333C54.2223 504.778 55.2778 504.722 55.3333 504.667C55.7778 504.222 54.7222 504.278 54.6667 504.333z"/>
<path style="fill:#d4d4d4; stroke:none;" d="M575.667 504.333C575.222 504.778 576.278 504.722 576.333 504.667C576.778 504.222 575.722 504.278 575.667 504.333z"/>
<path style="fill:#b0b0b0; stroke:none;" d="M577.667 504.333C577.222 504.778 578.278 504.722 578.333 504.667C578.778 504.222 577.722 504.278 577.667 504.333z"/>
<path style="fill:#d7d7d7; stroke:none;" d="M50.6667 505.333C50.2222 505.778 51.2778 505.722 51.3333 505.667C51.7777 505.222 50.7222 505.278 50.6667 505.333z"/>
<path style="fill:#d4d4d4; stroke:none;" d="M580 505C581.248 505.685 581.548 505.749 583 506C581.752 505.315 581.451 505.251 580 505z"/>
<path style="fill:#c7c7c7; stroke:none;" d="M585 506L586 507L585 506z"/>
<path style="fill:#c1c1c1; stroke:none;" d="M588 507L589 508L588 507z"/>
<path style="fill:#d8d8d8; stroke:none;" d="M41.6667 508.333C41.2222 508.778 42.2778 508.722 42.3333 508.667C42.7777 508.222 41.7222 508.278 41.6667 508.333z"/>
<path style="fill:#b0b0b0; stroke:none;" d="M590.667 508.333C590.222 508.778 591.278 508.722 591.333 508.667C591.778 508.222 590.722 508.278 590.667 508.333z"/>
<path style="fill:#bababa; stroke:none;" d="M39 509L40 510L39 509z"/>
<path style="fill:#b5b5b5; stroke:none;" d="M593 509L594 510L593 509z"/>
<path style="fill:#bababa; stroke:none;" d="M37 510L38 511L37 510z"/>
<path style="fill:#b5b5b5; stroke:none;" d="M595 510L596 511L595 510z"/>
<path style="fill:#b4b4b4; stroke:none;" d="M35 511L36 512L35 511z"/>
<path style="fill:#b0b0b0; stroke:none;" d="M597 511L598 512L597 511z"/>
<path style="fill:#d4d4d4; stroke:none;" d="M598 512L599 513L598 512z"/>
<path style="fill:#c1c1c1; stroke:none;" d="M32 513L33 514L32 513z"/>
<path style="fill:#bbbbbb; stroke:none;" d="M600 513L601 514L600 513M29 515L30 516L29 515z"/>
<path style="fill:#b5b5b5; stroke:none;" d="M603 515L604 516L603 515z"/>
<path style="fill:#cdcdcd; stroke:none;" d="M28 516L29 517L28 516z"/>
<path style="fill:#c7c7c7; stroke:none;" d="M604 516L605 517L604 516z"/>
<path style="fill:#b5b5b5; stroke:none;" d="M25 518L24 520C25.2627 519.029 25.3919 519.306 25 518z"/>
<path style="fill:#b0b0b0; stroke:none;" d="M607 518C607.545 519.635 607.365 519.455 609 520C608.455 518.365 608.635 518.545 607 518z"/>
<path style="fill:#c3c3c3; stroke:none;" d="M23 520L24 521L23 520z"/>
<path style="fill:#bbbbbb; stroke:none;" d="M609 520L610 521L609 520z"/>
<path style="fill:#c3c3c3; stroke:none;" d="M22 521L23 522L22 521z"/>
<path style="fill:#bbbbbb; stroke:none;" d="M610 521L611 522L610 521z"/>
<path style="fill:#c3c3c3; stroke:none;" d="M21 522L22 523L21 522z"/>
<path style="fill:#bbbbbb; stroke:none;" d="M611 522L612 523L611 522z"/>
<path style="fill:#c3c3c3; stroke:none;" d="M20 523L21 524L20 523z"/>
<path style="fill:#bbbbbb; stroke:none;" d="M612 523L613 524L612 523z"/>
<path style="fill:#b8b8b8; stroke:none;" d="M19 524L20 525L19 524z"/>
<path style="fill:#b0b0b0; stroke:none;" d="M613 524L614 525L613 524z"/>
<path style="fill:#b8b8b8; stroke:none;" d="M18 525L19 526L18 525z"/>
<path style="fill:#b0b0b0; stroke:none;" d="M614 525L615 526L614 525z"/>
<path style="fill:#cbcbcb; stroke:none;" d="M16 528L17 529L16 528z"/>
<path style="fill:#c1c1c1; stroke:none;" d="M616 528L617 529L616 528z"/>
<path style="fill:#bababa; stroke:none;" d="M15 529L16 530L15 529z"/>
<path style="fill:#b0b0b0; stroke:none;" d="M617 529L618 530L617 529z"/>
<path style="fill:#c0c0c0; stroke:none;" d="M13 532L14 533L13 532z"/>
<path style="fill:#b5b5b5; stroke:none;" d="M619 532L620 533L619 532z"/>
<path style="fill:#d2d2d2; stroke:none;" d="M12 534L13 535L12 534z"/>
<path style="fill:#c7c7c7; stroke:none;" d="M620 534L621 535L620 534z"/>
<path style="fill:#e5e5e5; stroke:none;" d="M10.3333 537.667C10.2778 537.722 10.2222 538.778 10.6667 538.333C10.7222 538.278 10.7778 537.222 10.3333 537.667z"/>
<path style="fill:#b0b0b0; stroke:none;" d="M622 537L623 538L622 537z"/>
<path style="fill:#dadada; stroke:none;" d="M9.33333 539.667C9.27779 539.722 9.22221 540.778 9.66667 540.333C9.72224 540.278 9.77775 539.222 9.33333 539.667z"/>
<path style="fill:#cdcdcd; stroke:none;" d="M623.333 539.667C623.278 539.722 623.222 540.778 623.667 540.333C623.722 540.278 623.778 539.222 623.333 539.667z"/>
<path style="fill:#e1e1e1; stroke:none;" d="M7.33333 544.667C7.2778 544.722 7.22223 545.778 7.66667 545.333C7.72224 545.278 7.77777 544.222 7.33333 544.667z"/>
<path style="fill:#d4d4d4; stroke:none;" d="M625.333 544.667C625.278 544.722 625.222 545.778 625.667 545.333C625.722 545.278 625.778 544.222 625.333 544.667z"/>
<path style="fill:#dddddd; stroke:none;" d="M6.33333 547.667C6.27779 547.722 6.22222 548.778 6.66667 548.333C6.72224 548.278 6.77776 547.222 6.33333 547.667z"/>
<path style="fill:#cecece; stroke:none;" d="M626.333 547.667C626.278 547.722 626.222 548.778 626.667 548.333C626.722 548.278 626.778 547.222 626.333 547.667z"/>
<path style="fill:#e3e3e3; stroke:none;" d="M5.33333 551.667C5.27779 551.722 5.22222 552.778 5.66667 552.333C5.72224 552.278 5.77776 551.222 5.33333 551.667z"/>
<path style="fill:#d4d4d4; stroke:none;" d="M627.333 551.667C627.278 551.722 627.222 552.778 627.667 552.333C627.722 552.278 627.778 551.222 627.333 551.667z"/>
<path style="fill:#c7c7c7; stroke:none;" d="M628.333 556.667C628.278 556.722 628.222 557.778 628.667 557.333C628.722 557.278 628.778 556.222 628.333 556.667z"/>
<path style="fill:#dbdbdb; stroke:none;" d="M628.333 573.667C628.278 573.722 628.222 574.778 628.667 574.333C628.722 574.278 628.778 573.222 628.333 573.667z"/>
<path style="fill:#cecece; stroke:none;" d="M4.33333 575.667C4.27778 575.722 4.22223 576.778 4.66667 576.333C4.72222 576.278 4.77778 575.222 4.33333 575.667z"/>
<path style="fill:#bbbbbb; stroke:none;" d="M628.333 575.667C628.278 575.722 628.222 576.778 628.667 576.333C628.722 576.278 628.778 575.222 628.333 575.667z"/>
<path style="fill:#c7c7c7; stroke:none;" d="M5.33333 580.667C5.27778 580.722 5.22223 581.778 5.66667 581.333C5.72222 581.278 5.77779 580.222 5.33333 580.667z"/>
<path style="fill:#b5b5b5; stroke:none;" d="M627.333 580.667C627.278 580.722 627.222 581.778 627.667 581.333C627.722 581.278 627.778 580.222 627.333 580.667z"/>
<path style="fill:#c3c3c3; stroke:none;" d="M6.33333 584.667C6.27778 584.722 6.22222 585.778 6.66667 585.333C6.72222 585.278 6.77778 584.222 6.33333 584.667z"/>
<path style="fill:#b0b0b0; stroke:none;" d="M626.333 584.667C626.278 584.722 626.222 585.778 626.667 585.333C626.722 585.278 626.778 584.222 626.333 584.667z"/>
<path style="fill:#cecece; stroke:none;" d="M625 587L626 588L625 587z"/>
<path style="fill:#cdcdcd; stroke:none;" d="M8 590L9 591L8 590z"/>
<path style="fill:#bbbbbb; stroke:none;" d="M624 590L625 591L624 590z"/>
<path style="fill:#c7c7c7; stroke:none;" d="M623 592L624 593L623 592z"/>
<path style="fill:#cdcdcd; stroke:none;" d="M622 594L623 595L622 594z"/>
<path style="fill:#d0d0d0; stroke:none;" d="M11 596L12 597L11 596z"/>
<path style="fill:#c1c1c1; stroke:none;" d="M621 596L622 597L621 596z"/>
<path style="fill:#c3c3c3; stroke:none;" d="M12 598L13 599L12 598z"/>
<path style="fill:#b5b5b5; stroke:none;" d="M620 598L621 599L620 598z"/>
<path style="fill:#bfbfbf; stroke:none;" d="M13 600L14 601L13 600z"/>
<path style="fill:#b0b0b0; stroke:none;" d="M619 600L620 601L619 600z"/>
<path style="fill:#cfcfcf; stroke:none;" d="M14 601L15 602L14 601z"/>
<path style="fill:#c1c1c1; stroke:none;" d="M618 601L619 602L618 601z"/>
<path style="fill:#c2c2c2; stroke:none;" d="M16 604L17 605L16 604z"/>
<path style="fill:#b5b5b5; stroke:none;" d="M616 604L617 605L616 604z"/>
<path style="fill:#d3d3d3; stroke:none;" d="M17 605L18 606L17 605z"/>
<path style="fill:#c7c7c7; stroke:none;" d="M615 605L616 606L615 605z"/>
<path style="fill:#d3d3d3; stroke:none;" d="M614 606L615 607L614 606z"/>
<path style="fill:#b8b8b8; stroke:none;" d="M20 609L21 610L20 609z"/>
<path style="fill:#b0b0b0; stroke:none;" d="M612 609L613 610L612 609z"/>
<path style="fill:#b7b7b7; stroke:none;" d="M21 610L22 611L21 610z"/>
<path style="fill:#aeaeae; stroke:none;" d="M611 610L612 611L611 610z"/>
<path style="fill:#b7b7b7; stroke:none;" d="M22 611L23 612L22 611z"/>
<path style="fill:#aeaeae; stroke:none;" d="M610 611L611 612L610 611z"/>
<path style="fill:#b7b7b7; stroke:none;" d="M23 612L24 613L23 612z"/>
<path style="fill:#aeaeae; stroke:none;" d="M609 612L610 613L609 612z"/>
<path style="fill:#d2d2d2; stroke:none;" d="M606 614L607 615L606 614z"/>
<path style="fill:#cfcfcf; stroke:none;" d="M27 615L28 616L27 615z"/>
<path style="fill:#c5c5c5; stroke:none;" d="M605 615L606 616L605 615z"/>
<path style="fill:#bdbdbd; stroke:none;" d="M28 616L29 617L28 616z"/>
<path style="fill:#fefefe; stroke:none;" d="M488 616C484.362 617.555 479.694 615.917 477 619C472.277 616.91 467.713 616.888 463 619C460.841 617.127 459.116 618.404 457 620C453.511 617.371 446.093 617.828 443 621C433.17 618.877 421.725 625.368 412 627C418.577 631.983 427.703 627.114 435 628C435.986 626.521 436 626.797 436 625C440.714 627.81 446.057 624.855 451.17 624.471C456.633 624.06 463.445 625.404 469 626C470.364 624.538 471.116 623.321 473 624C478.68 621.52 484.967 622.531 491 622.638C501.329 622.821 511.879 621.564 522 624L522 622C525.822 622.783 531.874 621.985 535 624C540.895 622.045 547.891 623.761 554 624.174C561.631 624.689 569.363 623.983 576.996 624.235C583.69 624.456 591.673 626.6 596 620C590.61 620.169 585.309 618.728 579.911 618.786C575.132 618.837 570.424 620.3 566 618C562.423 619.041 557.708 616.651 555 619C552.923 617.903 551.314 617.361 549 617L549 619C542.524 618.013 536.229 618.432 529.83 618.013C525.663 617.74 522.692 616.592 519 619L519 617C517.7 617.65 518 617.147 518 619L516 619L516 617L513 618L514 616C510.831 616.852 508.277 617.219 505 617C505.65 618.3 505.147 618 507 618C503.685 619.134 501.492 617.409 498 617.167C494.319 616.911 491.093 618.32 488 616z"/>
<path style="fill:#b2b2b2; stroke:none;" d="M604 616L605 617L604 616z"/>
<path style="fill:#c9c9c9; stroke:none;" d="M31 618L32 619L31 618z"/>
<path style="fill:#bebebe; stroke:none;" d="M601 618L602 619L601 618z"/>
<path style="fill:#b5b5b5; stroke:none;" d="M32 619L33 620L32 619z"/>
<path style="fill:#aeaeae; stroke:none;" d="M599.667 619.333C599.222 619.778 600.278 619.722 600.333 619.667C600.778 619.222 599.722 619.278 599.667 619.333z"/>
<path style="fill:#bbbbbb; stroke:none;" d="M34 620L35 621L34 620z"/>
<path style="fill:#b2b2b2; stroke:none;" d="M598 620L599 621L598 620z"/>
<path style="fill:#c7c7c7; stroke:none;" d="M36 621L37 622L36 621z"/>
<path style="fill:#bdbdbd; stroke:none;" d="M596 621L597 622L596 621z"/>
<path style="fill:#fdfdfd; stroke:none;" d="M472 622C470.565 623.449 469.885 624.222 469 626C463.565 624.827 455.817 623.767 450.3 624.268C445.324 624.719 440.909 626.898 436 625L435 628C433.199 627.438 431.878 627.176 430 627L430 629L523 629C544.507 629 565.825 630.107 587 626C582.925 623.291 577.166 624.077 572.424 624.176C566.609 624.297 560.353 624.574 554.576 623.983C548.475 623.359 540.745 621.673 535 624C532.266 621.591 525.712 622.432 522 622L522 624C511.632 619.839 497.516 622.352 486.425 622.179C481.946 622.109 476.739 621.276 473 624C473 622.147 473.3 622.65 472 622z"/>
<path style="fill:#c9c9c9; stroke:none;" d="M594 622L595 623L594 622z"/>
<path style="fill:#c1c1c1; stroke:none;" d="M592 623L593 624L592 623z"/>
<path style="fill:#b1b1b1; stroke:none;" d="M590 624L591 625L590 624z"/>
<path style="fill:#c6c6c6; stroke:none;" d="M587 625L588 626L587 625z"/>
<path style="fill:#cacaca; stroke:none;" d="M47.6667 626.333C47.2222 626.778 48.2778 626.722 48.3333 626.667C48.7778 626.222 47.7222 626.278 47.6667 626.333z"/>
<path style="fill:#aaaaaa; stroke:none;" d="M584.667 626.333C584.222 626.778 585.278 626.722 585.333 626.667C585.778 626.222 584.722 626.278 584.667 626.333z"/>
<path style="fill:#d2d2d2; stroke:none;" d="M51.6667 627.333C51.2222 627.778 52.2778 627.722 52.3333 627.667C52.7778 627.222 51.7222 627.278 51.6667 627.333z"/>
<path style="fill:#c5c5c5; stroke:none;" d="M579 627C580.248 627.685 580.549 627.749 582 628C580.752 627.315 580.452 627.251 579 627z"/>
<path style="fill:#c4c4c4; stroke:none;" d="M56.6667 628.333C56.2222 628.778 57.2778 628.722 57.3333 628.667C57.7778 628.222 56.7222 628.278 56.6667 628.333z"/>
<path style="fill:#d0d0d0; stroke:none;" d="M573.667 628.333C573.222 628.778 574.278 628.722 574.333 628.667C574.778 628.222 573.722 628.278 573.667 628.333z"/>
<path style="fill:#b3b3b3; stroke:none;" d="M575.667 628.333C575.222 628.778 576.278 628.722 576.333 628.667C576.778 628.222 575.722 628.278 575.667 628.333z"/>
</svg>
